<svg width="664" height="664" viewBox="0 0 664 664" fill="none" xmlns="http://www.w3.org/2000/svg">
<circle cx="332" cy="332" r="332" fill="#3BD29C"/>
<path fill-rule="evenodd" clip-rule="evenodd" d="M153 243.667C153 231.82 157.715 220.459 166.107 212.083C174.499 203.706 185.882 199 197.75 199H466.25C478.118 199 489.501 203.706 497.893 212.083C506.285 220.459 511 231.82 511 243.667V422.333C511 434.18 506.285 445.541 497.893 453.917C489.501 462.294 478.118 467 466.25 467H197.75C185.882 467 174.499 462.294 166.107 453.917C157.715 445.541 153 434.18 153 422.333V243.667ZM197.75 221.333C191.816 221.333 186.125 223.686 181.928 227.875C177.732 232.063 175.375 237.743 175.375 243.667V248.513L332 342.313L488.625 248.513V243.667C488.625 237.743 486.268 232.063 482.072 227.875C477.875 223.686 472.184 221.333 466.25 221.333H197.75ZM488.625 274.554L382.165 338.315L488.625 402.546V274.576V274.554ZM487.864 428.162L360.439 351.313L332 368.354L303.539 351.313L176.136 428.14C177.416 432.884 180.227 437.075 184.135 440.063C188.042 443.05 192.828 444.669 197.75 444.667H466.25C471.169 444.67 475.953 443.055 479.86 440.071C483.767 437.088 486.58 432.902 487.864 428.162V428.162ZM175.375 402.546L281.835 338.315L175.375 274.554V402.524V402.546Z" fill="white"/>
</svg>
