<svg width="1000" height="1000" viewBox="0 0 1000 1000" fill="none" xmlns="http://www.w3.org/2000/svg">
<path d="M456.32 11.7401C366.08 19.7801 278.14 53.8901 203.62 109.45C179.48 127.46 127.37 179.57 109.36 203.71C80.8101 242.03 55.1401 288.97 39.2401 332.27C16.8201 393 6.47007 466.95 11.0701 531.32C16.0501 600.67 30.4201 655.09 60.3101 715.63C86.7501 769.47 110.12 802.03 154.19 845.91C198.06 889.97 230.63 913.35 284.47 939.79C345.01 969.68 399.42 984.05 468.78 989.03C519.93 992.67 569.74 987.88 623.77 974.28C738.91 944.97 842.75 870.25 910.19 768.32C925.9 744.76 951 694.94 960.77 667.93C983.19 606.81 993.53 533.24 988.93 469.06C983.95 399.52 969.58 345.11 939.69 284.56C913.25 230.73 889.88 198.16 845.81 154.28C801.94 110.22 769.37 86.8401 715.53 60.4001C680.85 43.3501 657.29 34.5401 623.76 25.9101C566.67 11.3601 512.07 6.76012 456.32 11.7401ZM626.45 273.83V321.53L592.16 322.3C542.92 323.07 542.35 323.64 542.35 374.99L542.16 406.22H584.3H626.45V410.44C626.45 416 618.79 490.14 617.64 495.7C616.87 500.11 616.68 500.11 579.51 500.11H542.15V637.09V774.07H485.63H429.11V637.09V500.09H400.37H371.63V453.15V406.21H400.18H428.73L429.69 360.61C430.46 321.33 431.03 313.29 434.67 300.83C445.02 265.77 463.79 245.84 496.94 234.73C515.14 228.6 535.45 226.68 586.79 226.3L626.45 226.11V273.83Z" fill="black"/>
</svg>
