<svg width="664" height="664" viewBox="0 0 664 664" fill="none" xmlns="http://www.w3.org/2000/svg">
<circle cx="332" cy="332" r="332" fill="#0A66C2"/>
<rect x="159" y="151" width="359" height="360" fill="white"/>
<path d="M504.314 488.324H434.527V379.03C434.527 352.968 434.062 319.418 398.23 319.418C361.882 319.418 356.321 347.813 356.321 377.132V488.316H286.534V263.564H353.53V294.279H354.467C361.172 282.815 370.861 273.384 382.501 266.991C394.142 260.597 407.298 257.481 420.569 257.974C491.302 257.974 504.343 304.5 504.343 365.028L504.314 488.324ZM207.79 232.842C199.78 232.843 191.95 230.47 185.289 226.021C178.628 221.572 173.437 215.247 170.37 207.847C167.303 200.448 166.5 192.305 168.061 184.448C169.622 176.592 173.478 169.374 179.141 163.709C184.804 158.044 192.019 154.186 199.875 152.622C207.731 151.058 215.874 151.858 223.274 154.922C230.675 157.986 237.001 163.176 241.452 169.835C245.903 176.495 248.28 184.325 248.282 192.335C248.282 197.653 247.236 202.92 245.202 207.834C243.167 212.748 240.185 217.213 236.425 220.975C232.665 224.736 228.201 227.72 223.288 229.756C218.375 231.793 213.109 232.841 207.79 232.842ZM242.684 488.324H172.824V263.564H242.684V488.324ZM539.106 87.0321H137.756C128.646 86.9293 119.868 90.4474 113.351 96.8133C106.834 103.179 103.111 111.872 103 120.982V524.011C103.107 533.125 106.828 541.824 113.345 548.197C119.862 554.569 128.642 558.094 137.756 557.997H539.106C548.238 558.112 557.043 554.597 563.585 548.224C570.128 541.852 573.874 533.143 574 524.011V120.953C573.87 111.825 570.122 103.122 563.579 96.7565C557.036 90.3907 548.234 86.8826 539.106 87.003" fill="#0A66C2"/>
</svg>
