<svg width="811" height="808" viewBox="0 0 811 808" fill="none" xmlns="http://www.w3.org/2000/svg">
<path d="M10.4662 89.686C13.9606 45.7836 47.7839 12.1741 91.7165 9.0824C153.191 4.75629 256.111 0 411.5 0C569.092 0 669.048 4.89213 726.924 9.26614C767.104 12.3028 797.728 41.8294 801.146 81.9788C805.912 137.959 811 236.009 811 399.5C811 561.737 805.99 661.76 801.256 720.057C797.795 762.677 764.52 794.225 721.877 797.401C657.166 802.22 550.568 808 411.5 808C273.645 808 163.686 802.32 95.4322 797.527C49.7859 794.321 13.9438 759.278 10.4422 713.653C5.51689 649.48 0 545.102 0 399.5C0 253.662 5.53484 151.641 10.4662 89.686Z" fill="url(#paint0_linear)"/>
<path d="M335.35 477H136V162H197.65V422.1H335.35V477ZM611.502 313.65L618.252 251.1H615.552L596.202 301.5L529.152 418.95H509.352L438.702 301.05L418.902 251.1H416.652L425.652 313.2V477H367.152V162H423.402L507.552 306L522.402 342H524.202L537.702 305.1L617.352 162H673.152V477H611.502V313.65Z" fill="#F9FDFF"/>
<rect x="130" y="600" width="281" height="55" fill="#F9FDFF"/>
<defs>
<linearGradient id="paint0_linear" x1="18" y1="16" x2="793" y2="791" gradientUnits="userSpaceOnUse">
<stop offset="0.140625" stop-color="#5264CE"/>
<stop offset="1" stop-color="#3BD29C"/>
</linearGradient>
</defs>
</svg>
