<svg width="664" height="664" viewBox="0 0 664 664" fill="none" xmlns="http://www.w3.org/2000/svg">
<circle cx="332" cy="332" r="332" fill="#FF0000"/>
<path d="M123.281 223.624C125.59 204.603 140.513 190.861 159.595 189.139C190.385 186.361 245.961 183 334.63 183C424.156 183 476.612 186.427 504.499 189.22C521.261 190.898 534.633 202.349 537.697 218.915C541.667 240.38 546 276.039 546 329.443C546 382.669 541.696 419.896 537.736 442.881C534.638 460.865 520.06 473.49 501.885 475.134C472.605 477.784 419.569 481 334.63 481C250.037 481 193.828 477.81 161.775 475.167C141.586 473.502 125.666 458.787 123.35 438.662C120.69 415.556 118 379.751 118 329.443C118 279.568 120.644 245.349 123.281 223.624Z" fill="white"/>
<path d="M413 331.5L294.5 395.153L294.5 267.847L413 331.5Z" fill="#FF0000"/>
</svg>
