<svg width="472" height="314" viewBox="0 0 472 314" fill="none" xmlns="http://www.w3.org/2000/svg">
<path d="M13.9068 39.4555C18.0885 21.3765 33.0513 8.47258 51.5272 6.7461C83.3381 3.77355 142.566 0.0178223 238.771 0.0178223C339.221 0.0178223 395.375 4.11229 423.143 7.13462C437.672 8.71607 449.879 17.7548 454.51 31.617C462.11 54.3687 472 95.3086 472 154.306C472 212.758 462.292 255.672 454.721 280.252C449.997 295.59 436.529 305.723 420.555 307.28C391.091 310.15 333.936 313.982 238.771 313.982C146.589 313.982 86.3982 310.387 53.2706 307.552C33.8943 305.894 18.121 292.256 13.9763 273.256C7.75532 244.738 0 200.018 0 154.306C0 108.764 7.69775 66.2997 13.9068 39.4555Z" fill="#FF0000"/>
<path d="M324 156.5L194 227L194 86L324 156.5Z" fill="white"/>
</svg>
